<?xml version="1.0" standalone="no"?><svg xmlns="http://www.w3.org/2000/svg" viewBox="0 0 1440 320"><path fill="#00244C" fill-opacity="1" d="M0,160L16,181.3C32,203,64,245,96,261.3C128,277,160,267,192,234.7C224,203,256,149,288,138.7C320,128,352,160,384,144C416,128,448,64,480,58.7C512,53,544,107,576,112C608,117,640,75,672,53.3C704,32,736,32,768,53.3C800,75,832,117,864,117.3C896,117,928,75,960,74.7C992,75,1024,117,1056,160C1088,203,1120,245,1152,218.7C1184,192,1216,96,1248,48C1280,0,1312,0,1344,42.7C1376,85,1408,171,1424,213.3L1440,256L1440,320L1424,320C1408,320,1376,320,1344,320C1312,320,1280,320,1248,320C1216,320,1184,320,1152,320C1120,320,1088,320,1056,320C1024,320,992,320,960,320C928,320,896,320,864,320C832,320,800,320,768,320C736,320,704,320,672,320C640,320,608,320,576,320C544,320,512,320,480,320C448,320,416,320,384,320C352,320,320,320,288,320C256,320,224,320,192,320C160,320,128,320,96,320C64,320,32,320,16,320L0,320Z"></path></svg>